<svg width="192" height="192" xmlns="http://www.w3.org/2000/svg">
  <defs>
    <linearGradient id="grad1" x1="0%" y1="0%" x2="100%" y2="100%">
      <stop offset="0%" style="stop-color:#7c2d12;stop-opacity:1" />
      <stop offset="50%" style="stop-color:#ea580c;stop-opacity:1" />
      <stop offset="100%" style="stop-color:#fb923c;stop-opacity:1" />
    </linearGradient>
    <radialGradient id="glow" cx="50%" cy="50%" r="50%">
      <stop offset="0%" style="stop-color:#fbbf24;stop-opacity:0.9" />
      <stop offset="100%" style="stop-color:#f97316;stop-opacity:0" />
    </radialGradient>
  </defs>
  <rect width="192" height="192" rx="42" fill="url(#grad1)"/>
  
  <!-- Central star/sun -->
  <circle cx="96" cy="96" r="24" fill="url(#glow)"/>
  <circle cx="96" cy="96" r="16" fill="#fbbf24"/>
  
  <!-- Orbit ring -->
  <circle cx="96" cy="96" r="50" stroke="#fed7aa" stroke-width="2" fill="none" opacity="0.5"/>
  
  <!-- Planets/stars -->
  <circle cx="146" cy="96" r="6" fill="#fcd34d"/>
  <circle cx="46" cy="96" r="4" fill="#fb923c"/>
  
  <!-- Small stars -->
  <circle cx="130" cy="60" r="2.5" fill="#fef3c7" opacity="0.9"/>
  <circle cx="160" cy="140" r="2" fill="#fde68a" opacity="0.8"/>
  <circle cx="40" cy="140" r="2.5" fill="#fef3c7" opacity="0.9"/>
  <circle cx="60" cy="50" r="2" fill="#fde68a" opacity="0.85"/>
  <circle cx="150" cy="130" r="1.5" fill="#fef3c7" opacity="0.95"/>
  
  <!-- Sparkles -->
  <path d="M 120 40 L 122 45 L 127 47 L 122 49 L 120 54 L 118 49 L 113 47 L 118 45 Z" fill="#fef3c7" opacity="0.9"/>
  <path d="M 70 160 L 71.5 163 L 74.5 164.5 L 71.5 166 L 70 169 L 68.5 166 L 65.5 164.5 L 68.5 163 Z" fill="#fde68a" opacity="0.85"/>
</svg>
